<svg width="85%" viewBox="0 0 579 577" fill="none" xmlns="http://www.w3.org/2000/svg">
<path d="M449.866 75.7204C450.605 74.5583 451.122 72.8681 451.1 71.1567C451.071 68.9187 450.117 66.5556 447.455 65.2245C446.422 64.7079 445.63 63.4253 445.241 61.6997C444.856 59.9946 444.892 57.9653 445.408 56.1231C445.924 54.2789 446.905 52.6731 448.365 51.7409C449.797 50.8269 451.765 50.5108 454.387 51.3691C457.718 53.6428 459.017 59.4256 455.393 67.3833C454.384 69.1934 454.312 70.4085 454.637 71.2198C454.799 71.6219 455.044 71.8864 455.255 72.0508C455.359 72.1325 455.455 72.1895 455.529 72.2274C455.566 72.2465 455.597 72.2609 455.621 72.2713C455.634 72.2765 455.644 72.2807 455.653 72.2841L455.664 72.2884L455.669 72.2901L455.671 72.2909L455.672 72.2912C455.672 72.2913 455.673 72.2914 455.695 72.2281L455.673 72.2915L455.904 72.373L456.11 72.2401L462.634 68.0293L462.676 68.0022L462.712 67.9673C463.793 66.9139 464.655 64.7491 464.626 62.5492C464.597 60.3112 463.644 57.9481 460.981 56.617C459.948 56.1004 459.157 54.8178 458.767 53.0923C458.382 51.3871 458.418 49.3578 458.934 47.5156C459.45 45.6714 460.432 44.0656 461.891 43.1334C463.323 42.2195 465.291 41.9033 467.913 42.7616C469.57 43.8952 470.726 46.0054 471.02 48.8573C471.316 51.7368 470.726 55.3363 468.91 59.316L468.906 59.3253L468.902 59.3348C468.509 60.2994 468.426 61.2218 468.484 61.952C468.513 62.3168 468.577 62.6399 468.66 62.902C468.737 63.1453 468.848 63.3935 469.003 63.5566L469.27 63.8383L469.609 63.649L469.365 63.2124C469.609 63.649 469.609 63.649 469.609 63.649L469.609 63.6488L469.61 63.6482L469.614 63.6461L469.629 63.6377L469.688 63.605C469.739 63.5762 469.814 63.5338 469.911 63.4791C470.105 63.3696 470.385 63.2108 470.73 63.0129C471.42 62.6173 472.372 62.0655 473.418 61.4405C475.501 60.1952 477.985 58.644 479.509 57.459L479.531 57.4418L479.551 57.4223C480.632 56.3689 481.494 54.2041 481.466 52.0042C481.437 49.7662 480.483 47.4031 477.821 46.072C476.788 45.5554 475.996 44.2728 475.607 42.5473C475.222 40.8421 475.257 38.8128 475.773 36.9706C476.29 35.1264 477.271 33.5206 478.731 32.5884C480.162 31.6745 482.131 31.3584 484.753 32.2166C486.41 33.3502 487.566 35.4604 487.859 38.3123C488.156 41.1918 487.566 44.7913 485.75 48.771L485.744 48.7839L485.739 48.7971C485.698 48.9029 485.655 49.0112 485.612 49.1215C485.209 50.1523 484.739 51.3531 484.569 52.2253C484.521 52.4717 484.492 52.7167 484.502 52.9393C484.511 53.1525 484.558 53.4128 484.73 53.6234C484.924 53.862 485.202 53.948 485.476 53.9344C485.729 53.9219 485.997 53.8272 486.269 53.6911C488.225 52.7134 492.771 50.3777 494.955 48.724L494.98 48.7051L495.002 48.6834C496.038 47.6734 497.155 45.7571 497.369 43.7443C497.477 42.7276 497.357 41.666 496.858 40.6835C496.357 39.6972 495.494 38.8286 494.182 38.1723C493.148 37.6557 492.357 36.3731 491.967 34.6476C491.582 32.9424 491.618 30.9131 492.134 29.0709C492.65 27.2267 493.632 25.6209 495.092 24.6887C496.523 23.7748 498.492 23.4586 501.114 24.3169C502.771 25.4505 503.927 27.5607 504.22 30.4126C504.517 33.2921 503.926 36.8916 502.111 40.8713L502.075 40.9492L502.068 41.0346C502.02 41.5695 502.025 42.1952 502.13 42.7901C502.232 43.3764 502.441 43.9861 502.842 44.435C503.268 44.9106 503.874 45.1629 504.642 45.0662C505.371 44.9743 506.224 44.5728 507.229 43.8224L512.818 40.4687C512.884 40.6736 512.952 40.8823 513.02 41.094C513.513 42.6291 514.059 44.3268 514.796 45.9219C515.623 47.7148 516.711 49.4284 518.288 50.7009C517.561 51.1011 517.064 51.5175 516.785 51.9633C516.594 52.2682 516.504 52.59 516.522 52.9171C516.539 53.2393 516.658 53.5284 516.823 53.7781C517.143 54.2638 517.677 54.6638 518.2 54.9807C518.734 55.3042 519.314 55.5743 519.779 55.7802L519.857 55.8149L519.943 55.8216C524.304 56.1606 527.739 57.3876 530.115 59.0417C532.467 60.6799 533.754 62.7132 533.943 64.712C533.424 67.4214 532.194 68.9907 530.701 69.8002C529.178 70.6259 527.298 70.7069 525.435 70.2654C523.573 69.8244 521.78 68.873 520.475 67.7102C519.154 66.5336 518.415 65.22 518.464 64.0657C518.525 62.5995 518.183 61.4237 517.563 60.5079C516.945 59.5957 516.074 58.9764 515.133 58.5787C513.268 57.7912 511.051 57.8397 509.665 58.2571L509.635 58.2661L509.607 58.2787C507.102 59.3887 502.857 62.2347 501.054 63.4719C500.803 63.6441 500.591 63.8327 500.457 64.0476C500.313 64.2812 500.253 64.5658 500.368 64.8513C500.469 65.1033 500.674 65.271 500.856 65.3824C501.046 65.4986 501.275 65.5916 501.513 65.669C502.359 65.9432 503.637 66.1136 504.734 66.2599C504.851 66.2755 504.967 66.2909 505.079 66.3061L505.093 66.308L505.107 66.3091C509.469 66.6481 512.903 67.8751 515.279 69.5292C517.632 71.1674 518.918 73.2007 519.107 75.1995C518.588 77.9089 517.358 79.4782 515.866 80.2877C514.343 81.1134 512.463 81.1944 510.599 80.753C508.738 80.312 506.945 79.3605 505.639 78.1978C504.319 77.0212 503.58 75.7075 503.628 74.5532C503.753 71.5795 502.148 69.6003 500.204 68.4911C498.293 67.4008 495.981 67.1065 494.536 67.5419L494.51 67.55L494.484 67.561C492.709 68.3205 490.149 69.7422 488.05 70.9621C486.997 71.5743 486.053 72.1396 485.372 72.5519C485.032 72.758 484.758 72.926 484.568 73.0425C484.473 73.1007 484.4 73.1461 484.35 73.177L484.293 73.2122L484.278 73.2213L484.274 73.2236L484.273 73.2242L484.273 73.2244C484.273 73.2244 484.273 73.2245 484.537 73.6491L484.273 73.2245L483.943 73.4294L484.06 73.7998C484.128 74.0142 484.292 74.231 484.467 74.4161C484.656 74.6157 484.908 74.8287 485.213 75.0308C485.824 75.4353 486.671 75.8092 487.705 75.9323L487.715 75.9335L487.726 75.9343C492.087 76.2734 495.522 77.5004 497.897 79.1544C500.25 80.7926 501.537 82.8259 501.726 84.8247C501.207 87.5341 499.977 89.1035 498.484 89.913C496.961 90.7387 495.081 90.8197 493.217 90.3782C491.356 89.9372 489.563 88.9857 488.258 87.823C486.937 86.6464 486.198 85.3328 486.247 84.1785C486.371 81.2047 484.766 79.2256 482.822 78.1164C480.911 77.0261 478.6 76.7318 477.155 77.1671L477.107 77.1816L477.063 77.2052L470.219 80.8732L470.003 80.989L469.962 81.2308L470.455 81.3139C469.962 81.2308 469.962 81.2313 469.962 81.2318L469.962 81.2328L469.961 81.2349L469.961 81.2398L469.959 81.252L469.958 81.2625C469.957 81.2693 469.956 81.2771 469.955 81.2857C469.952 81.3121 469.95 81.3466 469.948 81.388C469.946 81.4705 469.949 81.5821 469.97 81.7132C470.012 81.9771 470.124 82.3201 470.398 82.656C470.95 83.3337 472.048 83.8589 474.12 83.8534C482.838 84.5366 487.268 88.4743 487.644 92.4894C487.125 95.1988 485.895 96.7682 484.402 97.5777C482.879 98.4034 480.999 98.4844 479.136 98.0429C477.274 97.6019 475.481 96.6505 474.176 95.4877C472.855 94.3111 472.116 92.9975 472.165 91.8432C472.29 88.8689 470.684 86.8982 468.739 85.7979C466.94 84.7803 464.787 84.4687 463.337 84.7979C463.184 84.7395 463.03 84.7494 462.934 84.7611C462.72 84.7876 462.452 84.8745 462.154 84.9935C461.544 85.2378 460.66 85.6806 459.526 86.3233C457.254 87.6122 453.924 89.736 449.669 92.7783C441.156 98.8643 428.919 108.64 413.995 122.795C384.145 151.106 343.539 196.943 300.48 265.839L300.467 265.859L300.456 265.88C296.355 274.083 290.02 287.185 284.339 299.838C278.667 312.471 273.623 324.712 272.135 331.163C270.293 339.142 266.918 351.413 263.087 361.22C261.17 366.129 259.151 370.386 257.17 373.178C256.177 374.578 255.222 375.569 254.327 376.103C253.453 376.624 252.675 376.692 251.941 376.325C248.442 374.575 245.133 370.448 244.377 362.583C243.619 354.704 245.433 343.109 252.181 326.545C253.906 322.312 255.52 318.476 256.996 314.97C258.4 311.632 259.679 308.593 260.808 305.793C263.136 300.023 264.878 295.149 265.886 290.495C267.911 281.149 266.963 272.747 262.022 259.778C252.124 233.794 233.557 218.959 210.124 207.859L210.097 207.846L210.068 207.836C201.549 204.997 191.498 198.588 181.862 189.804C172.232 181.024 163.045 169.897 156.243 157.652C155.573 156.446 155.623 155.118 156.349 153.646C157.083 152.155 158.496 150.553 160.48 148.891C164.444 145.572 170.552 142.128 177.561 138.953C191.58 132.603 209.046 127.399 219.792 126.422C222.668 126.161 225.298 127.459 227.715 129.843C230.136 132.232 232.297 135.668 234.208 139.559C237.842 146.96 240.513 155.88 242.355 162.034C242.449 162.349 242.541 162.657 242.631 162.957L243.603 162.898C244.215 159.326 245.133 155.079 246.317 151.165C247.505 147.237 248.945 143.698 250.582 141.501C251.401 140.402 252.23 139.692 253.052 139.401C253.841 139.121 254.685 139.205 255.627 139.839C256.592 140.487 257.651 141.709 258.782 143.691C259.909 145.667 261.088 148.361 262.312 151.91C262.495 152.44 262.773 152.852 263.177 153.101C263.581 153.35 264.038 153.391 264.486 153.328C265.342 153.207 266.358 152.672 267.384 152.108C267.518 152.035 267.653 151.96 267.789 151.885C268.733 151.363 269.731 150.811 270.768 150.395C271.951 149.921 273.136 149.645 274.284 149.784C276.51 150.054 278.904 151.949 280.821 158.12C282.734 164.276 284.111 174.517 284.418 191.105L284.439 192.227L285.259 191.461C288.207 188.71 292.261 187.365 297.399 188.969C302.575 190.584 308.889 195.207 316.24 204.519C316.475 204.817 316.82 204.716 316.893 204.691C317.01 204.652 317.12 204.584 317.21 204.522C317.4 204.39 317.641 204.184 317.923 203.923C318.493 203.395 319.294 202.578 320.306 201.508C322.333 199.365 325.237 196.17 328.889 192.148L329.464 191.514C336.733 183.508 346.833 172.383 358.849 159.741C383.525 133.781 416.268 101.445 449.138 76.6157L449.163 76.5967L449.171 76.5887C449.451 76.357 449.73 76.1255 450.01 75.8941L449.866 75.7204Z" fill="#FFD803" stroke="#FFD803"/>
<path d="M375.377 245.069C366.77 254.906 327.421 304.092 306.517 336.062C304.058 339.824 300.861 344.178 307.747 347.129C314.633 350.08 317.994 352.458 332.34 347.129L328.651 349.589C319.797 354.507 322.503 359.016 324.962 360.655C317.174 364.549 307.952 364.396 304.058 366.804C300.164 369.212 302.828 374.181 306.517 374.181C329.545 374.181 376.197 397.135 397.511 413.53C409.807 412.71 439.565 408.611 460.223 398.774C480.881 388.937 464.732 376.641 454.075 371.722C463.912 372.132 484.57 378.854 488.505 368.033C492.44 357.212 462.272 333.603 446.697 327.455C446.697 322.536 451.615 314.078 451.615 302.862C451.615 290.566 437.27 285.237 429.482 281.958C408.578 275.81 378.574 283.188 391.363 273.35C407.348 261.054 381.526 238.042 375.377 245.069Z" fill="#FFD803" stroke="#FFD803"/>
<path d="M327.421 269.662C333.569 263.103 344.636 254.66 339.718 273.35C334.941 291.503 305.032 312.672 289.421 321.761C286.565 321.141 292.251 305.624 295.45 297.943C307.337 271.301 332.832 220.476 339.718 230.313C346.604 240.15 334.389 260.644 327.421 269.662Z" fill="#FFD803"/>
<path d="M288.073 322.536C288.509 322.289 288.959 322.03 289.421 321.761M289.421 321.761C305.032 312.672 334.941 291.503 339.718 273.35C344.636 254.66 333.569 263.103 327.421 269.662C334.389 260.644 346.604 240.15 339.718 230.313C332.832 220.476 307.337 271.301 295.45 297.943C292.251 305.624 286.565 321.141 289.421 321.761Z" stroke="#FFD803"/>
<path d="M173.715 197.112C248.724 236.461 252.413 302.862 243.805 321.307C241.838 310.486 233.148 295.484 227.82 290.566C221.918 290.566 218.802 300.403 217.983 305.321C203.227 277.777 165.108 270.071 147.893 269.662C183.553 285.647 209.375 312.699 189.701 311.47C154.138 309.247 138.056 312.289 134.367 315.158C200.768 321.307 225.361 353.166 221.672 354.507C210.851 358.442 207.326 365.984 206.916 369.263C163.632 369.263 144.204 384.429 138.056 393.856C127.235 377.133 88.8698 385.248 79.0326 388.937L92.5588 375.411L108.544 363.115C87.6402 370.493 66.7362 371.722 54.4397 356.966C41.5951 341.553 17.5503 329.914 1.56494 328.685C5.49981 300.157 27.7974 280.728 38.4543 274.58C2.0568 252.938 21.6492 238.511 35.995 234.002C48.2915 208.179 93.7884 220.476 92.5588 215.557C91.3291 210.639 79.0326 167.601 173.715 197.112Z" fill="#FFD803" stroke="#FFD803"/>
<path d="M142.974 408.612C164.616 387.954 202.407 379.92 215.523 381.559C211.588 385.494 208.145 402.053 206.916 409.841C213.064 401.644 228.066 384.51 238.887 381.559C249.707 378.608 261.43 401.644 265.939 413.53C267.168 404.923 273.018 403.184 278.235 404.923C285.613 407.382 286.843 411.891 286.843 418.449C288.482 418.449 292.253 416.481 294.221 408.612C296.414 399.838 332.844 417.475 339.821 421.39C336.28 418.52 325.663 408.083 320.043 402.463C312.173 393.61 326.975 383.181 358.162 398.774C385.214 412.3 391.312 421.899 397.474 421.899C417.939 421.899 431.503 418.943 438.833 417.746C454.876 415.126 457.911 413.746 460.326 415.126C467.212 419.061 461.453 425.827 461.453 425.827C471.29 435.254 490.964 458.535 490.964 476.242C490.964 498.376 478.668 500.835 479.897 502.065C484.816 511.902 481.947 520.099 479.897 522.969C471.29 531.986 457.764 545.102 450.386 540.184C443.392 535.521 438.499 528.707 434.4 527.887C433.581 531.986 434.4 542.643 427.022 546.332C419.98 549.853 406.118 541.413 407.348 542.643C412.267 558.382 406.938 565.596 403.659 567.236C391.773 568.466 369.229 567.236 374.148 552.48C379.066 537.724 376.607 531.166 371.688 522.969C370.869 526.248 371.535 537.724 361.851 546.332C350.784 556.169 324.962 529.117 332.34 519.28C340.209 502.557 333.159 485.669 328.651 473.783C328.651 478.701 324.552 480.751 322.503 481.161C312.665 481.161 306.517 441.812 299.139 433.204C305.697 442.632 305.287 481.161 301.599 515.591C297.251 556.168 252.823 565.596 235.198 566.006C239.132 558.137 235.198 543.053 232.738 536.495C228.803 564.039 217.983 574.204 213.064 575.843C204.456 572.154 215.523 532.191 213.064 537.724C209.129 546.578 199.948 558.628 195.849 563.547C190.111 570.925 174.453 582.975 157.73 572.154C143.232 562.773 149.867 541.008 156.964 527.37C149.323 539.088 134.62 553.448 124.529 547.562C116.844 543.079 115.112 535.351 103.625 530.347C93.0575 525.742 80.5491 532.806 72.8843 519.28C56.1611 489.768 78.2128 463.536 91.329 454.108C75.3436 447.55 60.5879 425.827 79.0325 404.923C100.893 380.147 133.547 397.545 142.974 408.612Z" fill="#FFD803"/>
<path d="M215.523 381.559C202.407 379.92 164.616 387.954 142.974 408.612C133.547 397.545 100.893 380.147 79.0325 404.923C60.5879 425.827 75.3436 447.55 91.329 454.108C78.2128 463.536 56.1611 489.768 72.8843 519.28C80.5491 532.806 93.0575 525.742 103.625 530.347C115.112 535.351 116.844 543.079 124.529 547.562C136.334 554.448 154.451 533.626 160.189 521.739C152.401 534.035 141.007 561.334 157.73 572.154C174.453 582.975 190.111 570.925 195.849 563.547C199.948 558.628 209.129 546.578 213.064 537.724C215.523 532.191 204.456 572.154 213.064 575.843C217.983 574.204 228.803 564.039 232.738 536.495C235.198 543.053 239.132 558.137 235.198 566.006C252.823 565.596 297.251 556.168 301.599 515.591C305.287 481.161 305.697 442.632 299.139 433.204C306.517 441.812 312.665 481.161 322.503 481.161C324.552 480.751 328.651 478.701 328.651 473.783C333.159 485.669 340.209 502.557 332.34 519.28C324.962 529.117 350.784 556.169 361.851 546.332C371.535 537.724 370.869 526.248 371.688 522.969C376.607 531.166 379.066 537.724 374.148 552.48C369.229 567.236 391.773 568.466 403.659 567.236C406.938 565.596 412.267 558.382 407.348 542.643C406.118 541.413 419.98 549.853 427.022 546.332C434.4 542.643 433.581 531.986 434.4 527.887C438.499 528.707 443.392 535.521 450.386 540.184C457.764 545.102 471.29 531.986 479.897 522.969C481.947 520.099 484.816 511.902 479.897 502.065C478.668 500.835 490.964 498.376 490.964 476.242C490.964 458.535 471.29 435.254 461.453 425.827C461.453 425.827 467.212 419.061 460.326 415.126C457.911 413.746 454.876 415.126 438.833 417.746C431.503 418.943 417.939 421.899 397.474 421.899C391.312 421.899 385.214 412.3 358.162 398.774C326.975 383.181 312.173 393.61 320.043 402.463C326.601 409.021 339.963 422.138 340.947 422.138C342.177 422.138 296.68 398.774 294.221 408.612C292.253 416.481 288.482 418.449 286.843 418.449C286.843 411.891 285.613 407.382 278.235 404.923C273.018 403.184 267.168 404.923 265.939 413.53C261.43 401.644 249.707 378.608 238.887 381.559C228.066 384.51 213.064 401.644 206.916 409.841C208.145 402.053 211.588 385.494 215.523 381.559Z" stroke="#FFD803"/>
<path d="M537.982 39.7336C537.982 45.0023 533.711 49.2734 528.442 49.2734C523.174 49.2734 518.903 45.0023 518.903 39.7336C518.903 34.4649 523.174 30.1937 528.442 30.1937C533.711 30.1937 537.982 34.4649 537.982 39.7336Z" fill="#FFD803"/>
<path d="M563.504 10.488C563.504 15.7567 559.233 20.0278 553.965 20.0278C548.696 20.0278 544.425 15.7567 544.425 10.488C544.425 5.21925 548.696 0.94812 553.965 0.94812C559.233 0.94812 563.504 5.21925 563.504 10.488Z" fill="#FFD803"/>
<path d="M578.06 33.2895C578.06 38.5582 573.789 42.8293 568.521 42.8293C563.252 42.8293 558.981 38.5582 558.981 33.2895C558.981 28.0208 563.252 23.7496 568.521 23.7496C573.789 23.7496 578.06 28.0208 578.06 33.2895Z" fill="#FFD803"/>
<path d="M553.55 29.6621C553.55 33.3311 550.575 36.3055 546.906 36.3055C543.237 36.3055 540.263 33.3311 540.263 29.6621C540.263 25.993 543.237 23.0186 546.906 23.0186C550.575 23.0186 553.55 25.993 553.55 29.6621Z" fill="#FFD803"/>
<path d="M560.29 48.8229C560.29 54.0916 556.018 58.3628 550.75 58.3628C545.481 58.3628 541.21 54.0916 541.21 48.8229C541.21 43.5542 545.481 39.2831 550.75 39.2831C556.018 39.2831 560.29 43.5542 560.29 48.8229Z" fill="#FFD803"/>
<path d="M540.098 17.0703C540.098 22.339 535.827 26.6101 530.558 26.6101C525.289 26.6101 521.018 22.339 521.018 17.0703C521.018 11.8016 525.289 7.53046 530.558 7.53046C535.827 7.53046 540.098 11.8016 540.098 17.0703Z" fill="#FFD803"/>
</svg>

